# xmcd
# 
# Track frame offsets:
#     183
#     14453
#     32468
#     53648
#     68043
#     80293
#     94283
#     110825
#     124275
#     137270
#     160640
#     175360
#     188518
#     201415
#     222538
#     238700
# 
# Disc length: 3315
# 
# Revision: 6
# Processed by: cddbd v1.5.2PL0 Copyright (c) Steve Scherf et al.
# Submitted via: fre:ac v1.0.17
# 
DISCID=db0cf110
DTITLE=John Denver - Voice of America
DYEAR=1993
DGENRE=Country
TTITLE0=Take Me Home Country Roads
TTITLE1=Leaving On A Jet Plane
TTITLE2=Rocky Mountain High
TTITLE3=Starwood In Aspen
TTITLE4=Garden Song
TTITLE5=Thank God I'm A Country Boy
TTITLE6=Song For The Life
TTITLE7=Annie's Song
TTITLE8=Wrangell Mountain Song
TTITLE9=Sunshine On My Shoulders
TTITLE10=Welcome To My Morning (Farewell Andromeda)
TTITLE11=For Baby (For Bobbie)
TTITLE12=Follow Me
TTITLE13=Back Home Again
TTITLE14=Calypso
TTITLE15=The Eagle And The Hawk
EXTD=YEAR: 1993
EXTT0=
EXTT1=
EXTT2=
EXTT3=
EXTT4=
EXTT5=
EXTT6=
EXTT7=
EXTT8=
EXTT9=
EXTT10=
EXTT11=
EXTT12=
EXTT13=
EXTT14=
EXTT15=
PLAYORDER=
